<svg width="48" height="48" viewBox="0 0 48 48" fill="none" xmlns="http://www.w3.org/2000/svg">
  <g>
    <path d="M24 8a16 16 0 1 0 0 32c7.732 0 14-6.268 14-14 0-.934-.09-1.845-.22-2.72H24v5.52h8.12A8.001 8.001 0 1 1 24 16c2.04 0 3.89.75 5.33 1.98l4-3.9A13.98 13.98 0 0 0 24 8z" fill="none" stroke="#FF7A00" stroke-width="2.5"/>
    <path d="M38 24h-6v-4h10v2c0 7.732-6.268 14-14 14a14 14 0 1 1 0-28c3.31 0 6.34 1.21 8.7 3.19l-4.01 3.9A8.001 8.001 0 1 0 32 24z" fill="none" stroke="#FF7A00" stroke-width="2.5"/>
  </g>
</svg>
